<svg width="82" height="58" viewBox="0 0 82 58" fill="none" xmlns="http://www.w3.org/2000/svg">
<path fill-rule="evenodd" clip-rule="evenodd" d="M15.5 8V20.069H8L0.5 20.069V8H15.5ZM15.5 35.5H32V50.5H15.2C7.07831 50.5 0.500012 43.9132 0.500029 35.7977L0.5 20.069L8 20.069H15.5L15.5 35.5Z" fill="#090909"/>
<path fill-rule="evenodd" clip-rule="evenodd" d="M13 14V20.0417H8L3 20.0417V14H13ZM8 20.0417L3 20.0417L3.00003 35.7977C3.00001 42.5335 8.46005 48 15.2 48H32V38H15.2C13.9871 38 13 37.0148 13 35.7977L13 20.0417H8Z" fill="#0580FC"/>
<path d="M8 2L14 5.25V11.75L8 15L2 11.75V5.25L8 2Z" fill="white"/>
<path fill-rule="evenodd" clip-rule="evenodd" d="M8 0.146822L15.5 4.27182V12.7282L8 16.8532L0.5 12.7282V4.27182L8 0.146822ZM13 5.75L8 3L3 5.75V11.25L8 14L13 11.25V5.75Z" fill="#090909"/>
<path d="M33 57L21 50L21 36L33 29L45 36L45 50L33 57Z" fill="white"/>
<path fill-rule="evenodd" clip-rule="evenodd" d="M33 55.2292L43.6 49.1138L43.6 36.8862L33 30.7708L22.4 36.8862L22.4 49.1138L33 55.2292ZM20 50.5L33 58L46 50.5L46 35.5L33 28L20 35.5L20 50.5Z" fill="#090909"/>
</svg>
