<svg width="82" height="58" viewBox="0 0 82 58" fill="none" xmlns="http://www.w3.org/2000/svg">
<path fill-rule="evenodd" clip-rule="evenodd" d="M15.5 8V20.069H8L0.5 20.069V8H15.5ZM15.5 35.5H32V50.5H15.2C7.07831 50.5 0.500012 43.9132 0.500029 35.7977L0.5 20.069L8 20.069H15.5L15.5 35.5Z" fill="#090909"/>
<path fill-rule="evenodd" clip-rule="evenodd" d="M13 14V20.0417H8L3 20.0417V14H13ZM8 20.0417L3 20.0417L3.00003 35.7977C3.00001 42.5335 8.46005 48 15.2 48H32V38H15.2C13.9871 38 13 37.0148 13 35.7977L13 20.0417H8Z" fill="#01A38A"/>
<path d="M8 2L14 5.25V11.75L8 15L2 11.75V5.25L8 2Z" fill="white"/>
<path fill-rule="evenodd" clip-rule="evenodd" d="M8 0.146729L15.5 4.27173V12.7281L8 16.8531L0.5 12.7281V4.27173L8 0.146729ZM13 5.74991L8 2.99991L3 5.74991V11.2499L8 13.9999L13 11.2499V5.74991Z" fill="#090909"/>
<path fill-rule="evenodd" clip-rule="evenodd" d="M27.5 8V20.069H20L12.5 20.069V8H27.5ZM27.5 35.5H44V50.5H27.2C19.0783 50.5 12.5 43.9132 12.5 35.7977L12.5 20.069L20 20.069H27.5L27.5 35.5Z" fill="#090909"/>
<path fill-rule="evenodd" clip-rule="evenodd" d="M25 14V20.0417H20L15 20.0417V14H25ZM20 20.0417L15 20.0417L15 35.7977C15 42.5335 20.46 48 27.2 48H44V38H27.2C25.9871 38 25 37.0148 25 35.7977L25 20.0417H20Z" fill="#0580FC"/>
<path d="M20 2L26 5.25V11.75L20 15L14 11.75V5.25L20 2Z" fill="white"/>
<path fill-rule="evenodd" clip-rule="evenodd" d="M20 0.146729L27.5 4.27173V12.7281L20 16.8531L12.5 12.7281V4.27173L20 0.146729ZM25 5.74991L20 2.99991L15 5.74991V11.2499L20 13.9999L25 11.2499V5.74991Z" fill="#090909"/>
<path d="M45 57L33 50L33 36L45 29L57 36L57 50L45 57Z" fill="white"/>
<path fill-rule="evenodd" clip-rule="evenodd" d="M45 55.2292L55.6 49.1138L55.6 36.8862L45 30.7708L34.4 36.8862L34.4 49.1138L45 55.2292ZM32 50.5L45 58L58 50.5L58 35.5L45 28L32 35.5L32 50.5Z" fill="#090909"/>
</svg>
