<svg width="56" height="56" viewBox="0 0 56 56" fill="none" xmlns="http://www.w3.org/2000/svg">
<path fill-rule="evenodd" clip-rule="evenodd" d="M12 5.03254L7 2.28254L2 5.03254V10.7676L7 13.7676L12 10.7676V5.03254ZM14 11.9V3.85L7 0L0 3.85V11.9L7 16.1L14 11.9ZM12 36.9998V19.5325L7 22.2825L2 19.5325V41.9998C2 44.7453 4.25457 46.9998 7 46.9998L25.5 46.9998V36.9998H12ZM0 41.9998C0 45.8498 3.15 48.9998 7 48.9998L27.5 48.9998V34.9998H14V16.15L7 20L0 16.15V41.9998ZM43.75 30.3035L54 36.1606V47.8394L43.75 53.6965L33.5 47.8394V36.1606L43.75 30.3035ZM56 35V49L43.75 56L31.5 49V35L43.75 28L56 35ZM44.75 43V50H42.75V43H35.75V41H42.75V34H44.75V41H51.75V43H44.75Z" fill="white"/>
</svg>
