<svg width="82" height="58" viewBox="0 0 82 58" fill="none" xmlns="http://www.w3.org/2000/svg">
<path fill-rule="evenodd" clip-rule="evenodd" d="M15.5 8V20.069H8L0.5 20.069V8H15.5ZM15.5 35.5H32V50.5H15.2C7.07831 50.5 0.500012 43.9132 0.500029 35.7977L0.5 20.069L8 20.069H15.5L15.5 35.5Z" fill="#090909"/>
<path fill-rule="evenodd" clip-rule="evenodd" d="M13 14V20.0417H8L3 20.0417V14H13ZM8 20.0417L3 20.0417L3.00003 35.7977C3.00001 42.5335 8.46005 48 15.2 48H32V38H15.2C13.9871 38 13 37.0148 13 35.7977L13 20.0417H8Z" fill="#E5032C"/>
<path d="M8 3L13 5.75V11.25L8 14L3 11.25V5.75L8 3Z" fill="#090909"/>
<path fill-rule="evenodd" clip-rule="evenodd" d="M8 0.146729L15.5 4.27173V12.7281L8 16.8531L0.5 12.7281V4.27173L8 0.146729ZM13 5.74991L8 2.99991L3 5.74991V11.2499L8 13.9999L13 11.2499V5.74991Z" fill="#090909"/>
<path fill-rule="evenodd" clip-rule="evenodd" d="M27.5 8V20.069H20L12.5 20.069V8H27.5ZM27.5 35.5H44V50.5H27.2C19.0783 50.5 12.5 43.9132 12.5 35.7977L12.5 20.069L20 20.069H27.5L27.5 35.5Z" fill="#090909"/>
<path fill-rule="evenodd" clip-rule="evenodd" d="M25 14V20.0417H20L15 20.0417V14H25ZM20 20.0417L15 20.0417L15 35.7977C15 42.5335 20.46 48 27.2 48H44V38H27.2C25.9871 38 25 37.0148 25 35.7977L25 20.0417H20Z" fill="#FE9100"/>
<path d="M20 2L26 5.25V11.75L20 15L14 11.75V5.25L20 2Z" fill="white"/>
<path fill-rule="evenodd" clip-rule="evenodd" d="M20 0.146729L27.5 4.27173V12.7281L20 16.8531L12.5 12.7281V4.27173L20 0.146729ZM25 5.74991L20 2.99991L15 5.74991V11.2499L20 13.9999L25 11.2499V5.74991Z" fill="#090909"/>
<path fill-rule="evenodd" clip-rule="evenodd" d="M39.5 8V20.069H32L24.5 20.069V8H39.5ZM39.5 35.5H56V50.5H39.2C31.0783 50.5 24.5 43.9132 24.5 35.7977L24.5 20.069L32 20.069H39.5L39.5 35.5Z" fill="#090909"/>
<path fill-rule="evenodd" clip-rule="evenodd" d="M37 14V20.0417H32L27 20.0417V14H37ZM32 20.0417L27 20.0417L27 35.7977C27 42.5335 32.46 48 39.2 48H56V38H39.2C37.9871 38 37 37.0148 37 35.7977L37 20.0417H32Z" fill="#01A38A"/>
<path d="M32 2L38 5.25V11.75L32 15L26 11.75V5.25L32 2Z" fill="white"/>
<path fill-rule="evenodd" clip-rule="evenodd" d="M32 0.146729L39.5 4.27173V12.7281L32 16.8531L24.5 12.7281V4.27173L32 0.146729ZM37 5.74991L32 2.99991L27 5.74991V11.2499L32 13.9999L37 11.2499V5.74991Z" fill="#090909"/>
<path fill-rule="evenodd" clip-rule="evenodd" d="M51.5 8V20.069H44L36.5 20.069V8H51.5ZM51.5 35.5H68V50.5H51.2C43.0783 50.5 36.5 43.9132 36.5 35.7977L36.5 20.069L44 20.069H51.5L51.5 35.5Z" fill="#090909"/>
<path fill-rule="evenodd" clip-rule="evenodd" d="M49 14V20.0417H44L39 20.0417V14H49ZM44 20.0417L39 20.0417L39 35.7977C39 42.5335 44.46 48 51.2 48H68V38H51.2C49.9871 38 49 37.0148 49 35.7977L49 20.0417H44Z" fill="#0580FC"/>
<path d="M44 2L50 5.25V11.75L44 15L38 11.75V5.25L44 2Z" fill="white"/>
<path fill-rule="evenodd" clip-rule="evenodd" d="M44 0.146729L51.5 4.27173V12.7281L44 16.8531L36.5 12.7281V4.27173L44 0.146729ZM49 5.74991L44 2.99991L39 5.74991V11.2499L44 13.9999L49 11.2499V5.74991Z" fill="#090909"/>
<path d="M69 57L57 50L57 36L69 29L81 36L81 50L69 57Z" fill="white"/>
<path fill-rule="evenodd" clip-rule="evenodd" d="M69 55.2292L79.6 49.1138L79.6 36.8862L69 30.7708L58.4 36.8862L58.4 49.1138L69 55.2292ZM56 50.5L69 58L82 50.5L82 35.5L69 28L56 35.5L56 50.5Z" fill="#090909"/>
<path fill-rule="evenodd" clip-rule="evenodd" d="M6.8479 12.5V4.5H8.8479V12.5H6.8479Z" fill="white"/>
<path fill-rule="evenodd" clip-rule="evenodd" d="M3.8479 7.5L11.8479 7.5L11.8479 9.5L3.8479 9.5L3.8479 7.5Z" fill="white"/>
</svg>
