<svg width="636" height="192" viewBox="0 0 636 192" fill="none" xmlns="http://www.w3.org/2000/svg">
<path d="M571.325 34.6362H621.922" stroke="#574CFA" stroke-width="2" stroke-dasharray="2 2"/>
<path d="M507.675 113.386L535.283 99.068" stroke="#574CFA" stroke-width="2"/>
<path d="M495.917 56.1135L379.351 95.9999" stroke="#574CFA" stroke-width="2"/>
<path d="M621.685 75.5454H501.029L379.351 96" stroke="#574CFA" stroke-width="2"/>
<path d="M534.901 96L379.35 96" stroke="#574CFA" stroke-width="2" stroke-dasharray="2 2"/>
<path d="M595.1 116.455L508.187 116.455M621.685 177.818H508.187" stroke="#574CFA" stroke-width="2"/>
<path d="M544.997 55.0908L508.187 55.0908" stroke="#574CFA" stroke-width="2"/>
<path d="M621.685 136.909H555.222M615.55 96.0001H547.042" stroke="#574CFA" stroke-width="2"/>
<path d="M597.145 14.1819L508.187 14.1819" stroke="#574CFA" stroke-width="2"/>
<path d="M496.428 17.25L379.351 96" stroke="#574CFA" stroke-width="2"/>
<path d="M559.312 34.6364H515.855L505.119 19.2955" stroke="#574CFA" stroke-width="2"/>
<path d="M603.28 55.0908H579.251L568.515 39.7499" stroke="#574CFA" stroke-width="2"/>
<path d="M542.952 136.909H501.029L379.351 96.0001" stroke="#574CFA" stroke-width="2"/>
<path d="M495.917 115.432L379.351 96.0001" stroke="#574CFA" stroke-width="2"/>
<path d="M496.428 174.75L379.351 95.9998" stroke="#574CFA" stroke-width="2"/>
<path d="M579.251 157.364H501.029L379.351 96.0001" stroke="#574CFA" stroke-width="2" stroke-dasharray="2 2"/>
<path d="M597.196 10.6682L603.28 7.15476L609.364 10.6682V17.6954L603.28 21.2089L597.196 17.6954V10.6682Z" stroke="#574CFA" stroke-width="2"/>
<path d="M615.601 92.4863L621.685 88.9729L627.769 92.4863V99.5136L621.685 103.027L615.601 99.5136V92.4863Z" stroke="#574CFA" stroke-width="2"/>
<path d="M559.363 31.1228L565.447 27.6094L571.531 31.1228V38.15L565.447 41.6635L559.363 38.15V31.1228Z" stroke="#574CFA" stroke-width="2"/>
<path d="M495.968 112.941L502.052 109.427L508.136 112.941V119.968L502.052 123.482L495.968 119.968V112.941Z" stroke="#574CFA" stroke-width="2"/>
<path d="M534.823 92.4863L540.907 88.9729L546.991 92.4863V99.5136L540.907 103.027L534.823 99.5136V92.4863Z" stroke="#574CFA" stroke-width="2"/>
<path d="M495.968 51.5774L502.052 48.0639L508.136 51.5774V58.6046L502.052 62.1181L495.968 58.6046V51.5774Z" stroke="#574CFA" stroke-width="2"/>
<path d="M545.048 51.5774L551.132 48.0639L557.216 51.5774V58.6046L551.132 62.1181L545.048 58.6046V51.5774Z" stroke="#574CFA" stroke-width="2"/>
<path d="M621.736 31.1228L627.82 27.6094L633.904 31.1228V38.15L627.82 41.6635L621.736 38.15V31.1228Z" stroke="#574CFA" stroke-width="2"/>
<path d="M495.968 10.6682L502.052 7.15476L508.136 10.6682V17.6954L502.052 21.2089L495.968 17.6954V10.6682Z" stroke="#574CFA" stroke-width="2"/>
<path d="M595.151 112.941L601.235 109.427L607.319 112.941V119.968L601.235 123.482L595.151 119.968V112.941Z" stroke="#574CFA" stroke-width="2"/>
<path d="M603.331 51.5774L609.415 48.0639L615.499 51.5774V58.6046L609.415 62.1181L603.331 58.6046V51.5774Z" stroke="#574CFA" stroke-width="2"/>
<path d="M621.736 133.395L627.82 129.882L633.904 133.395V140.423L627.82 143.936L621.736 140.423V133.395Z" stroke="#574CFA" stroke-width="2"/>
<path d="M543.003 133.395L549.087 129.882L555.171 133.395V140.423L549.087 143.936L543.003 140.423V133.395Z" stroke="#574CFA" stroke-width="2"/>
<path d="M621.736 72.032L627.82 68.5185L633.904 72.032V79.0592L627.82 82.5726L621.736 79.0592V72.032Z" stroke="#574CFA" stroke-width="2"/>
<path d="M578.791 153.85L584.875 150.337L590.959 153.85V160.877L584.875 164.391L578.791 160.877V153.85Z" stroke="#574CFA" stroke-width="2"/>
<path d="M621.736 174.305L627.82 170.791L633.904 174.305V181.332L627.82 184.845L621.736 181.332V174.305Z" stroke="#574CFA" stroke-width="2"/>
<path d="M495.968 174.305L502.052 170.791L508.136 174.305V181.332L502.052 184.845L495.968 181.332V174.305Z" stroke="#574CFA" stroke-width="2"/>
<path d="M30.3643 55.0908H134.971L256.65 95.9999" stroke="#574CFA" stroke-width="2" stroke-dasharray="2 2"/>
<path d="M13.8037 75.5454H134.971L256.649 96" stroke="#574CFA" stroke-width="2" stroke-dasharray="2 2"/>
<path d="M52.1479 96L256.65 96" stroke="#574CFA" stroke-width="2" stroke-dasharray="2 2"/>
<path d="M14.1465 14.1819H134.971L256.65 96.0001" stroke="#574CFA" stroke-width="2" stroke-dasharray="2 2"/>
<path d="M56.1191 34.6362H134.97L256.649 95.9999" stroke="#574CFA" stroke-width="2" stroke-dasharray="2 2"/>
<path d="M13.8037 136.909H134.971L256.649 96.0001" stroke="#574CFA" stroke-width="2" stroke-dasharray="2 2"/>
<path d="M30.414 116.455H134.971L256.649 96" stroke="#574CFA" stroke-width="2" stroke-dasharray="2 2"/>
<path d="M22.3335 177.818H134.971L256.649 96.0002" stroke="#574CFA" stroke-width="2" stroke-dasharray="2 2"/>
<path d="M47.8457 157.364H134.971L256.649 96.0001" stroke="#574CFA" stroke-width="2" stroke-dasharray="2 2"/>
<path d="M40.9514 92.4863L47.0355 88.9729L53.1197 92.4863V99.5136L47.0355 103.027L40.9514 99.5136V92.4863Z" stroke="#574CFA" stroke-width="2"/>
<path d="M44.0188 31.1228L50.1029 27.6094L56.1871 31.1228V38.15L50.1029 41.6635L44.0188 38.15V31.1228Z" stroke="#574CFA" stroke-width="2"/>
<path d="M18.4563 112.941L24.5404 109.427L30.6246 112.941V119.968L24.5404 123.482L18.4563 119.968V112.941Z" stroke="#574CFA" stroke-width="2"/>
<path d="M18.4563 51.5774L24.5404 48.0639L30.6246 51.5774V58.6046L24.5404 62.1181L18.4563 58.6046V51.5774Z" stroke="#574CFA" stroke-width="2"/>
<path d="M2.09592 72.032L8.18006 68.5185L14.2642 72.032V79.0592L8.18006 82.5726L2.09592 79.0592V72.032Z" stroke="#574CFA" stroke-width="2"/>
<path d="M35.8386 153.85L41.9227 150.337L48.0069 153.85V160.877L41.9227 164.391L35.8386 160.877V153.85Z" stroke="#574CFA" stroke-width="2"/>
<path d="M10.2761 174.305L16.3602 170.791L22.4444 174.305V181.332L16.3602 184.845L10.2761 181.332V174.305Z" stroke="#574CFA" stroke-width="2"/>
<path d="M2.09592 10.6682L8.18006 7.15476L14.2642 10.6682V17.6954L8.18006 21.2089L2.09592 17.6954V10.6682Z" stroke="#574CFA" stroke-width="2"/>
<path d="M2.09592 133.395L8.18006 129.882L14.2642 133.395V140.423L8.18006 143.936L2.09592 140.423V133.395Z" stroke="#574CFA" stroke-width="2"/>
<path d="M2.09592 72.032L8.18006 68.5185L14.2642 72.032V79.0592L8.18006 82.5726L2.09592 79.0592V72.032Z" stroke="#574CFA" stroke-width="2"/>
<path d="M256.649 74.7275V127.954" stroke="#574CFA" stroke-width="2" stroke-miterlimit="10"/>
<path d="M379.351 74.7275V127.954" stroke="#574CFA" stroke-width="2" stroke-miterlimit="10"/>
<path d="M317.5 22C295.169 22 277 40.155 277 62.4688C277 74.8267 282.565 86.3533 292.267 94.0909C292.608 94.363 293.031 94.5113 293.467 94.5113H301.715V165.078C301.715 166.14 302.576 167 303.638 167H318.149C318.659 167 319.148 166.797 319.509 166.437L332.722 153.235C333.082 152.874 333.285 152.386 333.285 151.876V141.488C333.285 140.426 332.424 139.567 331.362 139.567H317.257V134.537H331.362C332.424 134.537 333.285 133.678 333.285 132.615V124.609C333.285 123.547 332.424 122.688 331.362 122.688H317.257V118.405H331.362C332.424 118.405 333.285 117.546 333.285 116.483V109.012C333.285 107.95 332.424 107.091 331.362 107.091H317.257V103.636H331.362C332.424 103.636 333.285 102.776 333.285 101.714V94.5113H341.533C341.969 94.5113 342.392 94.363 342.733 94.0909C352.435 86.3533 358 74.8267 358 62.4688C358 40.155 339.831 22 317.5 22ZM329.439 99.7922H315.334C314.271 99.7922 313.41 100.652 313.41 101.714V109.012C313.41 110.075 314.271 110.934 315.334 110.934H329.439V114.562H315.334C314.271 114.562 313.41 115.421 313.41 116.483V124.609C313.41 125.672 314.271 126.531 315.334 126.531H329.439V130.694H315.334C314.271 130.694 313.41 131.553 313.41 132.615V141.488C313.41 142.551 314.271 143.41 315.334 143.41H329.439V151.08L317.353 163.157H305.561V94.5113H329.439V99.7922ZM340.85 90.6678H294.15C285.687 83.6697 280.846 73.4305 280.846 62.4688C280.846 42.2738 297.289 25.8434 317.5 25.8434C337.711 25.8434 354.154 42.2738 354.154 62.4688C354.154 73.4305 349.313 83.6697 340.85 90.6678Z" fill="white"/>
<path fill-rule="evenodd" clip-rule="evenodd" d="M317.5 53.1429C322.826 53.1429 327.143 48.8256 327.143 43.5C327.143 38.1744 322.826 33.8571 317.5 33.8571C312.174 33.8571 307.857 38.1744 307.857 43.5C307.857 48.8256 312.174 53.1429 317.5 53.1429ZM317.5 57C324.956 57 331 50.9558 331 43.5C331 36.0442 324.956 30 317.5 30C310.044 30 304 36.0442 304 43.5C304 50.9558 310.044 57 317.5 57Z" fill="white"/>
</svg>
