<svg width="636" height="188" viewBox="0 0 636 188" fill="none" xmlns="http://www.w3.org/2000/svg">
<path fill-rule="evenodd" clip-rule="evenodd" d="M182.902 144.818L212.314 93.5028L214.05 94.4974L184.061 146.818H158.125V144.818H182.902Z" fill="#FE9100"/>
<path fill-rule="evenodd" clip-rule="evenodd" d="M178.852 43.1815L128.33 43.1815V41.1815L178.852 41.1815V43.1815Z" fill="#01A38A"/>
<path fill-rule="evenodd" clip-rule="evenodd" d="M149.057 146.818L148.021 146.818V144.818L149.057 144.818V146.818ZM145.948 146.818L143.875 146.818L143.875 144.818L145.948 144.818V146.818ZM141.802 146.818L139.73 146.818L139.73 144.818L141.802 144.818L141.802 146.818ZM137.657 146.818L135.584 146.818L135.584 144.818L137.657 144.818L137.657 146.818ZM133.512 146.818L131.439 146.818L131.439 144.818L133.512 144.818L133.512 146.818ZM129.366 146.818L128.33 146.818V144.818L129.366 144.818L129.366 146.818Z" fill="#574CFA"/>
<path fill-rule="evenodd" clip-rule="evenodd" d="M185.332 47.4218L184.841 46.5658L186.577 45.5713L187.067 46.4272L185.332 47.4218ZM187.294 50.8455L186.313 49.1336L188.048 48.1391L189.03 49.8509L187.294 50.8455ZM189.257 54.2692L188.276 52.5573L190.011 51.5628L190.992 53.2746L189.257 54.2692ZM191.219 57.6929L190.238 55.981L191.973 54.9865L192.954 56.6983L191.219 57.6929ZM193.181 61.1166L192.2 59.4047L193.935 58.4102L194.917 60.122L193.181 61.1166ZM195.144 64.5403L194.163 62.8284L195.898 61.8339L196.879 63.5457L195.144 64.5403ZM197.106 67.964L196.125 66.2521L197.86 65.2576L198.841 66.9694L197.106 67.964ZM199.069 71.3877L198.087 69.6758L199.823 68.6813L200.804 70.3931L199.069 71.3877ZM201.031 74.8114L200.05 73.0995L201.785 72.105L202.766 73.8168L201.031 74.8114ZM202.993 78.2351L202.012 76.5232L203.747 75.5287L204.728 77.2405L202.993 78.2351ZM204.956 81.6588L203.974 79.9469L205.71 78.9524L206.691 80.6642L204.956 81.6588ZM206.918 85.0825L205.937 83.3706L207.672 82.3761L208.653 84.0879L206.918 85.0825ZM208.88 88.5062L207.899 86.7943L209.634 85.7998L210.616 87.5116L208.88 88.5062ZM210.843 91.9299L209.862 90.218L211.597 89.2235L212.578 90.9353L210.843 91.9299ZM212.315 94.4977L211.824 93.6417L213.559 92.6472L214.05 93.5031L212.315 94.4977Z" fill="#0580FC"/>
<path fill-rule="evenodd" clip-rule="evenodd" d="M183.761 67.0903H158.125V69.0903H183.013L212.526 94.754L213.838 93.2448L183.761 67.0903Z" fill="#574CFA"/>
<path fill-rule="evenodd" clip-rule="evenodd" d="M148.004 69.0913H149.057V67.0913H148.004V69.0913ZM143.794 69.0913H145.899V67.0913H143.794V69.0913ZM139.584 69.0913H141.689V67.0913H139.584V69.0913ZM135.374 69.0913H137.479V67.0913H135.374V69.0913ZM131.163 69.0913H133.269V67.0913H131.163V69.0913ZM126.953 69.0913H129.058V67.0913H126.953V69.0913ZM124.169 69.0913H124.848V67.0913H123.422L122.394 67.9844L123.707 69.4936L124.169 69.0913ZM120.727 72.0846L122.217 70.7891L120.905 69.2799L119.415 70.5753L120.727 72.0846ZM117.748 74.6755L119.237 73.38L117.925 71.8708L116.435 73.1662L117.748 74.6755ZM114.768 77.2664L116.258 75.9709L114.946 74.4617L113.456 75.7572L114.768 77.2664ZM111.789 79.8573L113.278 78.5618L111.966 77.0526L110.476 78.3481L111.789 79.8573ZM108.809 82.4482L110.299 81.1527L108.986 79.6435L107.497 80.939L108.809 82.4482ZM105.83 85.0391L107.319 83.7436L106.007 82.2344L104.517 83.5299L105.83 85.0391ZM102.85 87.63L104.34 86.3346L103.027 84.8253L101.538 86.1208L102.85 87.63ZM99.8704 90.2209L101.36 88.9255L100.048 87.4163L98.5581 88.7117L99.8704 90.2209ZM96.8909 92.8118L98.3807 91.5164L97.0683 90.0072L95.5785 91.3026L96.8909 92.8118ZM94.6562 94.755L95.4011 94.1073L94.0888 92.5981L93.3439 93.2458L94.6562 94.755Z" fill="#FE9100"/>
<path fill-rule="evenodd" clip-rule="evenodd" d="M94.6563 93.2456L120.85 116.023L119.538 117.532L93.344 94.7549L94.6563 93.2456Z" fill="#0580FC"/>
<path fill-rule="evenodd" clip-rule="evenodd" d="M162.335 118.909H163.307V120.909H162.335V118.909ZM158.449 118.909H160.392V120.909H158.449V118.909ZM154.563 118.909H156.506V120.909H154.563V118.909ZM150.676 118.909H152.619V120.909H150.676V118.909ZM146.79 118.909H148.733V120.909H146.79V118.909ZM142.903 118.909H144.847V120.909H142.903V118.909ZM139.017 118.909H140.96V120.909H139.017V118.909ZM135.131 118.909H137.074V120.909H135.131V118.909ZM131.244 118.909H133.188V120.909H131.244V118.909ZM128.33 118.909H129.301V120.909H128.33V118.909Z" fill="#01A38A"/>
<path fill-rule="evenodd" clip-rule="evenodd" d="M169.564 115.527L179.927 97.3904L181.664 98.3827L171.3 116.519L169.564 115.527Z" fill="#574CFA"/>
<path fill-rule="evenodd" clip-rule="evenodd" d="M187.921 95H213.182V93H187.921V95Z" fill="#574CFA"/>
<path fill-rule="evenodd" clip-rule="evenodd" d="M142.58 95H178.853V93H142.58V95Z" fill="#574CFA"/>
<path fill-rule="evenodd" clip-rule="evenodd" d="M125.793 46.8735L150.407 65.0099L151.593 63.3998L126.98 45.2634L125.793 46.8735Z" fill="#574CFA"/>
<path fill-rule="evenodd" clip-rule="evenodd" d="M183.386 35.8453L177.899 39.0136V45.3501L183.386 48.5184L188.874 45.3501V39.0136L183.386 35.8453ZM186.874 40.1683V44.1954L183.386 46.209L179.899 44.1954V40.1683L183.386 38.1547L186.874 40.1683Z" fill="#FE9100"/>
<path fill-rule="evenodd" clip-rule="evenodd" d="M183.386 87.6638L177.899 90.8321V97.1686L183.386 100.337L188.874 97.1686V90.8321L183.386 87.6638ZM186.874 91.9868V96.0139L183.386 98.0275L179.899 96.0139V91.9868L183.386 89.9732L186.874 91.9868Z" fill="#574CFA"/>
<path fill-rule="evenodd" clip-rule="evenodd" d="M123.796 113.573L118.308 116.741V123.077L123.796 126.246L129.283 123.077V116.741L123.796 113.573ZM127.283 117.895V121.923L123.796 123.936L120.308 121.923V117.895L123.796 115.882L127.283 117.895Z" fill="#574CFA"/>
<path fill-rule="evenodd" clip-rule="evenodd" d="M153.591 139.481L148.103 142.649V148.986L153.591 152.154L159.079 148.986V142.649L153.591 139.481ZM157.079 143.804V147.831L153.591 149.845L150.103 147.831V143.804L153.591 141.791L157.079 143.804Z" fill="#0580FC"/>
<path fill-rule="evenodd" clip-rule="evenodd" d="M167.841 113.573L162.353 116.741V123.077L167.841 126.246L173.329 123.077V116.741L167.841 113.573ZM171.329 117.895V121.923L167.841 123.936L164.353 121.923V117.895L167.841 115.882L171.329 117.895Z" fill="#EB034C"/>
<path fill-rule="evenodd" clip-rule="evenodd" d="M153.591 61.754L148.103 64.9223V71.2588L153.591 74.4271L159.079 71.2588V64.9223L153.591 61.754ZM157.079 66.077V70.1041L153.591 72.1177L150.103 70.1041V66.077L153.591 64.0634L157.079 66.077Z" fill="#01A38A"/>
<path fill-rule="evenodd" clip-rule="evenodd" d="M122.077 46.5568L95.252 94.4887L93.5067 93.5119L120.332 45.5801L122.077 46.5568Z" fill="#EB034C"/>
<path fill-rule="evenodd" clip-rule="evenodd" d="M123.796 35.8453L118.308 39.0136V45.3501L123.796 48.5184L129.283 45.3501V39.0136L123.796 35.8453ZM127.283 40.1683V44.1954L123.796 46.209L120.308 44.1954V40.1683L123.796 38.1547L127.283 40.1683Z" fill="#574CFA"/>
<path fill-rule="evenodd" clip-rule="evenodd" d="M94.6478 95H133.511V93H94.6478V95Z" fill="#574CFA"/>
<path fill-rule="evenodd" clip-rule="evenodd" d="M138.046 87.6638L132.558 90.8321V97.1686L138.046 100.337L143.533 97.1686V90.8321L138.046 87.6638ZM141.533 91.9868V96.0139L138.046 98.0275L134.558 96.0139V91.9868L138.046 89.9732L141.533 91.9868Z" fill="#FE9100"/>
<path fill-rule="evenodd" clip-rule="evenodd" d="M95.252 93.5117L122.077 141.444L120.332 142.42L93.5067 94.4885L95.252 93.5117Z" fill="#574CFA"/>
<path fill-rule="evenodd" clip-rule="evenodd" d="M123.796 139.481L118.308 142.649V148.986L123.796 152.154L129.283 148.986V142.649L123.796 139.481ZM127.283 143.804V147.831L123.796 149.845L120.308 147.831V143.804L123.796 141.791L127.283 143.804Z" fill="#01A38A"/>
<path fill-rule="evenodd" clip-rule="evenodd" d="M452.098 144.818L422.686 93.5028L420.951 94.4974L450.939 146.818H476.875V144.818H452.098Z" fill="#FE9100"/>
<path fill-rule="evenodd" clip-rule="evenodd" d="M456.148 43.1815L506.67 43.1815V41.1815L456.148 41.1815V43.1815Z" fill="#01A38A"/>
<path fill-rule="evenodd" clip-rule="evenodd" d="M485.943 146.818L486.979 146.818V144.818L485.943 144.818V146.818ZM489.052 146.818L491.125 146.818L491.125 144.818L489.052 144.818V146.818ZM493.198 146.818L495.27 146.818L495.27 144.818L493.198 144.818L493.198 146.818ZM497.343 146.818L499.416 146.818L499.416 144.818L497.343 144.818L497.343 146.818ZM501.489 146.818L503.561 146.818L503.561 144.818L501.489 144.818L501.489 146.818ZM505.634 146.818L506.67 146.818V144.818L505.634 144.818L505.634 146.818Z" fill="#574CFA"/>
<path fill-rule="evenodd" clip-rule="evenodd" d="M449.668 47.4218L450.159 46.5658L448.424 45.5713L447.933 46.4272L449.668 47.4218ZM447.706 50.8455L448.687 49.1336L446.952 48.1391L445.971 49.8509L447.706 50.8455ZM445.743 54.2692L446.725 52.5573L444.989 51.5628L444.008 53.2746L445.743 54.2692ZM443.781 57.6929L444.762 55.981L443.027 54.9865L442.046 56.6983L443.781 57.6929ZM441.819 61.1166L442.8 59.4047L441.065 58.4102L440.083 60.122L441.819 61.1166ZM439.856 64.5403L440.837 62.8284L439.102 61.8339L438.121 63.5457L439.856 64.5403ZM437.894 67.964L438.875 66.2521L437.14 65.2576L436.159 66.9694L437.894 67.964ZM435.932 71.3877L436.913 69.6758L435.178 68.6813L434.196 70.3931L435.932 71.3877ZM433.969 74.8114L434.95 73.0995L433.215 72.105L432.234 73.8168L433.969 74.8114ZM432.007 78.2351L432.988 76.5232L431.253 75.5287L430.272 77.2405L432.007 78.2351ZM430.044 81.6588L431.026 79.9469L429.29 78.9524L428.309 80.6642L430.044 81.6588ZM428.082 85.0825L429.063 83.3706L427.328 82.3761L426.347 84.0879L428.082 85.0825ZM426.12 88.5062L427.101 86.7943L425.366 85.7998L424.385 87.5116L426.12 88.5062ZM424.157 91.9299L425.139 90.218L423.403 89.2235L422.422 90.9353L424.157 91.9299ZM422.686 94.4977L423.176 93.6417L421.441 92.6472L420.95 93.5031L422.686 94.4977Z" fill="#0580FC"/>
<path fill-rule="evenodd" clip-rule="evenodd" d="M451.239 67.0903H476.875V69.0903H451.987L422.474 94.754L421.162 93.2448L451.239 67.0903Z" fill="#574CFA"/>
<path fill-rule="evenodd" clip-rule="evenodd" d="M486.996 69.0913H485.943V67.0913H486.996V69.0913ZM491.206 69.0913H489.101V67.0913H491.206V69.0913ZM495.416 69.0913H493.311V67.0913H495.416V69.0913ZM499.626 69.0913H497.521V67.0913H499.626V69.0913ZM503.837 69.0913H501.732V67.0913H503.837V69.0913ZM508.047 69.0913H505.942V67.0913H508.047V69.0913ZM510.831 69.0913H510.152V67.0913H511.579L512.606 67.9844L511.293 69.4936L510.831 69.0913ZM514.273 72.0846L512.783 70.7891L514.095 69.2799L515.585 70.5753L514.273 72.0846ZM517.252 74.6755L515.763 73.38L517.075 71.8708L518.565 73.1662L517.252 74.6755ZM520.232 77.2664L518.742 75.9709L520.055 74.4617L521.544 75.7572L520.232 77.2664ZM523.211 79.8573L521.722 78.5618L523.034 77.0526L524.524 78.3481L523.211 79.8573ZM526.191 82.4482L524.701 81.1527L526.014 79.6435L527.503 80.939L526.191 82.4482ZM529.171 85.0391L527.681 83.7436L528.993 82.2344L530.483 83.5299L529.171 85.0391ZM532.15 87.63L530.66 86.3346L531.973 84.8253L533.462 86.1208L532.15 87.63ZM535.13 90.2209L533.64 88.9255L534.952 87.4163L536.442 88.7117L535.13 90.2209ZM538.109 92.8118L536.619 91.5164L537.932 90.0072L539.422 91.3026L538.109 92.8118ZM540.344 94.755L539.599 94.1073L540.911 92.5981L541.656 93.2458L540.344 94.755Z" fill="#FE9100"/>
<path fill-rule="evenodd" clip-rule="evenodd" d="M540.344 93.2456L514.15 116.023L515.462 117.532L541.656 94.7549L540.344 93.2456Z" fill="#0580FC"/>
<path fill-rule="evenodd" clip-rule="evenodd" d="M472.665 118.909H471.693V120.909H472.665V118.909ZM476.551 118.909H474.608V120.909H476.551V118.909ZM480.438 118.909H478.494V120.909H480.438V118.909ZM484.324 118.909H482.381V120.909H484.324V118.909ZM488.21 118.909H486.267V120.909H488.21V118.909ZM492.097 118.909H490.153V120.909H492.097V118.909ZM495.983 118.909H494.04V120.909H495.983V118.909ZM499.869 118.909H497.926V120.909H499.869V118.909ZM503.756 118.909H501.813V120.909H503.756V118.909ZM506.671 118.909H505.699V120.909H506.671V118.909Z" fill="#01A38A"/>
<path fill-rule="evenodd" clip-rule="evenodd" d="M465.437 115.527L455.073 97.3904L453.336 98.3827L463.7 116.519L465.437 115.527Z" fill="#574CFA"/>
<path fill-rule="evenodd" clip-rule="evenodd" d="M447.08 95H421.818V93H447.08V95Z" fill="#574CFA"/>
<path fill-rule="evenodd" clip-rule="evenodd" d="M492.42 95H456.148V93H492.42V95Z" fill="#574CFA"/>
<path fill-rule="evenodd" clip-rule="evenodd" d="M509.207 46.8735L484.593 65.0099L483.407 63.3998L508.02 45.2634L509.207 46.8735Z" fill="#574CFA"/>
<path fill-rule="evenodd" clip-rule="evenodd" d="M451.614 35.8453L457.101 39.0136V45.3501L451.614 48.5184L446.126 45.3501V39.0136L451.614 35.8453ZM448.126 40.1683V44.1954L451.614 46.209L455.101 44.1954V40.1683L451.614 38.1547L448.126 40.1683Z" fill="#FE9100"/>
<path fill-rule="evenodd" clip-rule="evenodd" d="M451.614 87.6638L457.101 90.8321V97.1686L451.614 100.337L446.126 97.1686V90.8321L451.614 87.6638ZM448.126 91.9868V96.0139L451.614 98.0275L455.101 96.0139V91.9868L451.614 89.9732L448.126 91.9868Z" fill="#574CFA"/>
<path fill-rule="evenodd" clip-rule="evenodd" d="M511.204 113.573L516.692 116.741V123.077L511.204 126.246L505.717 123.077V116.741L511.204 113.573ZM507.717 117.895V121.923L511.204 123.936L514.692 121.923V117.895L511.204 115.882L507.717 117.895Z" fill="#574CFA"/>
<path fill-rule="evenodd" clip-rule="evenodd" d="M481.409 139.481L486.897 142.649V148.986L481.409 152.154L475.922 148.986V142.649L481.409 139.481ZM477.922 143.804V147.831L481.409 149.845L484.897 147.831V143.804L481.409 141.791L477.922 143.804Z" fill="#0580FC"/>
<path fill-rule="evenodd" clip-rule="evenodd" d="M467.159 113.573L472.647 116.741V123.077L467.159 126.246L461.672 123.077V116.741L467.159 113.573ZM463.672 117.895V121.923L467.159 123.936L470.647 121.923V117.895L467.159 115.882L463.672 117.895Z" fill="#EB034C"/>
<path fill-rule="evenodd" clip-rule="evenodd" d="M481.409 61.754L486.897 64.9223V71.2588L481.409 74.4271L475.922 71.2588V64.9223L481.409 61.754ZM477.922 66.077V70.1041L481.409 72.1177L484.897 70.1041V66.077L481.409 64.0634L477.922 66.077Z" fill="#01A38A"/>
<path fill-rule="evenodd" clip-rule="evenodd" d="M512.923 46.5568L539.748 94.4887L541.493 93.5119L514.668 45.5801L512.923 46.5568Z" fill="#EB034C"/>
<path fill-rule="evenodd" clip-rule="evenodd" d="M511.204 35.8453L516.692 39.0136V45.3501L511.204 48.5184L505.717 45.3501V39.0136L511.204 35.8453ZM507.717 40.1683V44.1954L511.204 46.209L514.692 44.1954V40.1683L511.204 38.1547L507.717 40.1683Z" fill="#574CFA"/>
<path fill-rule="evenodd" clip-rule="evenodd" d="M540.352 95H501.489V93H540.352V95Z" fill="#574CFA"/>
<path fill-rule="evenodd" clip-rule="evenodd" d="M496.954 87.6638L502.442 90.8321V97.1686L496.954 100.337L491.467 97.1686V90.8321L496.954 87.6638ZM493.467 91.9868V96.0139L496.954 98.0275L500.442 96.0139V91.9868L496.954 89.9732L493.467 91.9868Z" fill="#FE9100"/>
<path fill-rule="evenodd" clip-rule="evenodd" d="M539.748 93.5117L512.923 141.444L514.668 142.42L541.493 94.4885L539.748 93.5117Z" fill="#574CFA"/>
<path fill-rule="evenodd" clip-rule="evenodd" d="M511.204 139.481L516.692 142.649V148.986L511.204 152.154L505.717 148.986V142.649L511.204 139.481ZM507.717 143.804V147.831L511.204 149.845L514.692 147.831V143.804L511.204 141.791L507.717 143.804Z" fill="#01A38A"/>
<path fill-rule="evenodd" clip-rule="evenodd" d="M236 65.7687V47L317.407 0L398.813 47V55.6911L395.102 54.2067L392.467 47.1136L389.63 54.2067L382.739 57.0436L389.63 59.6782L392.467 66.7714L395.102 59.6782L398.813 58.2996V111.267C396.722 106.241 393.27 100.557 388.082 94.1319C388.082 94.1319 420.303 135.27 370.045 148.644C370.045 148.644 391.28 145.972 398.813 132.933V141L317.407 188L236 141V130.108L238.824 131.258L241.054 136.73L243.282 131.258L248.754 129.028L243.282 126.799L241.054 121.328L238.824 126.799L236 127.95V102.789C243.438 113.607 253.186 120.684 253.186 120.684L252.173 114.807C244.575 108.524 239.413 102.42 236 96.6947V78.7106C238.065 87.5075 244.002 96.9245 252.945 106.05C252.958 106.133 252.971 106.213 252.984 106.296C264.13 117.644 279.936 128.182 298.783 136.085C318.643 144.597 337.096 148.455 353.51 148.251L354.212 148.239C368.921 147.914 381.952 143.633 389.27 137.004C390.723 135.688 391.022 135.437 391.678 134.457C392.505 133.223 393.335 131.541 394.231 129.6C398.862 118.73 394.459 104.729 383.276 91.6317C381.721 56.7708 353.112 28.9925 318.038 28.8828H317.832C301.646 28.8828 286.673 34.7408 275.129 44.6409C257.329 45.261 243.654 50.7822 237.987 61.1039C237.582 61.7123 237.38 62.3207 236.974 62.9278C236.585 63.8573 236.26 64.8052 236 65.7687ZM346.85 159.56L350.903 161.18L352.523 165.234L354.145 161.18L358.199 159.56L354.145 157.938L352.523 153.682L350.903 157.938L346.85 159.56ZM294.933 141.354C312.968 148.852 330.802 152.905 346.203 153.512C337.692 157.769 327.965 160.201 317.63 160.201C289.664 160.201 265.953 142.773 256.429 118.252C266.764 126.965 279.936 135.071 294.933 141.354ZM327.145 131.917L327.13 131.915L329.256 131.067L325.128 129.6L323.506 125.547L321.885 129.407L319.206 130.546L317.63 131.221L321.682 132.843L323.304 136.895L324.925 132.843L327.145 131.917ZM372.344 130.613L372.953 130.411C375.989 128.994 379.11 127.083 381.136 125.059C382.845 123.291 384.353 121.166 385.315 118.86C386.711 115.27 387.126 111.287 386.365 107.104C386.025 105.234 385.854 103.977 385.332 102.49C384.809 101.002 384.715 100.836 383.282 98.1543C383.06 105.391 381.444 112.424 378.83 118.86C371.535 122.304 361.401 125.345 361.401 125.345C366.468 125.141 377.411 122.304 377.411 122.304C370.318 126.965 351.066 130.006 351.066 130.006C361.401 130.613 374.979 126.358 375.183 126.358C362.527 132.77 343.496 133.526 337.365 133.599C339.793 133.908 342.086 134.084 344.379 134.261C359.577 135.275 369.71 131.627 372.344 130.613ZM277.867 47.1136C276.101 47.3355 273.054 47.5862 271.425 47.9322L271.428 47.9296C268.806 48.5458 265.93 49.4531 263.927 50.3644C258.456 52.7954 254.199 56.4431 251.971 60.9016C251.769 61.3076 251.565 61.7123 251.362 62.1184C248.935 68.1853 249.466 75.1191 253.094 82.3988C253.094 82.3988 253.799 84.2149 255.01 86.2332C258.05 91.0964 262.103 95.961 267.169 100.824C275.42 108.873 287.466 117.722 304.501 124.392C299.861 121.573 268.268 102.222 258.05 84.8141C258.05 84.8141 267.98 95.1502 282.57 103.256C282.57 103.256 261.697 87.8548 257.239 74.8841C257.239 74.8841 263.521 84.8141 275.681 92.718C275.681 92.718 263.927 80.7617 258.253 67.3863C258.253 67.3863 264.738 76.7079 269.399 80.9641C269.399 80.9641 263.116 70.6293 260.077 63.9422C263.116 58.0646 266.738 53.285 271.399 48.6228C272.942 47.9883 276.266 47.4387 277.867 47.1136ZM302.568 81.1599L296.362 78.678L294.057 72.4727L291.575 78.678L285.547 81.1599L291.575 83.4642L294.057 89.6695L296.362 83.4642L302.568 81.1599ZM298.539 52.9142L293.066 50.7247L291.032 45.2519L288.844 50.7247L283.526 52.9142L288.844 54.9482L291.032 60.4211L293.066 54.9482L298.539 52.9142ZM277.68 34.9393L273.424 33.3178L271.802 29.264L270.181 33.3178L266.128 34.9393L270.181 36.5595L271.802 40.8156L273.424 36.5595L277.68 34.9393ZM346.203 21.7231L342.149 19.8993L340.529 15.8455L338.908 19.8993L334.854 21.7231L338.908 23.3433L340.529 27.3971L342.149 23.3433L346.203 21.7231Z" fill="#574CFA"/>
<path fill-rule="evenodd" clip-rule="evenodd" d="M36 52.8483L0 73.4197V114.58L36 135.152L72 114.58V73.4197L36 52.8483ZM36 55.1518L70 74.5803V113.42L36 132.848L2 113.42V74.5803L36 55.1518Z" fill="white"/>
<path fill-rule="evenodd" clip-rule="evenodd" d="M36 89C40.8877 89 45 84.8314 45 79.5C45 74.1686 40.8877 70 36 70C31.1123 70 27 74.1686 27 79.5C27 84.8314 31.1123 89 36 89ZM36 91C42.0751 91 47 85.8513 47 79.5C47 73.1487 42.0751 68 36 68C29.9249 68 25 73.1487 25 79.5C25 85.8513 29.9249 91 36 91Z" fill="white"/>
<path fill-rule="evenodd" clip-rule="evenodd" d="M36 96C26.04 96 18 103.91 18 113.626V123H16V113.626C16 102.768 24.9732 94 36 94C47.0268 94 56 102.768 56 113.626V123H54V113.626C54 103.91 45.96 96 36 96Z" fill="white"/>
<path fill-rule="evenodd" clip-rule="evenodd" d="M93 74V114H95V74H93Z" fill="white"/>
<path fill-rule="evenodd" clip-rule="evenodd" d="M423 47L423 141L421 141L421 47L423 47Z" fill="white"/>
<path fill-rule="evenodd" clip-rule="evenodd" d="M214 46L214 142L212 142L212 46L214 46Z" fill="white"/>
<path fill-rule="evenodd" clip-rule="evenodd" d="M540 74V114H542V74H540Z" fill="white"/>
<path fill-rule="evenodd" clip-rule="evenodd" d="M599 51.6965L636 72.8394V115.161L599 136.304L562 115.161V72.8394L599 51.6965ZM634 74L599 54L564 74V114L599 134L634 114V74Z" fill="white"/>
<path fill-rule="evenodd" clip-rule="evenodd" d="M586 79.5C586 86.8711 591.737 93 599 93C606.263 93 612 86.8711 612 79.5C612 72.1289 606.263 66 599 66C591.737 66 586 72.1289 586 79.5ZM599 91C592.925 91 588 85.8513 588 79.5C588 73.1487 592.925 68 599 68C605.075 68 610 73.1487 610 79.5C610 85.8513 605.075 91 599 91Z" fill="white"/>
<path fill-rule="evenodd" clip-rule="evenodd" d="M599 96C608.96 96 617 103.91 617 113.626V123H619V113.626C619 102.768 610.027 94 599 94C587.973 94 579 102.768 579 113.626V123H581V113.626C581 103.91 589.04 96 599 96Z" fill="white"/>
</svg>
