<svg width="16" height="16" viewBox="0 0 16 16" fill="none" xmlns="http://www.w3.org/2000/svg">
<path fill-rule="evenodd" clip-rule="evenodd" d="M5.81354 6.11188C5.81354 8.36221 7.63779 10.1865 9.88812 10.1865C12.1385 10.1865 13.9627 8.36221 13.9627 6.11188C13.9627 3.86155 12.1385 2.03729 9.88812 2.03729C7.63779 2.03729 5.81354 3.86155 5.81354 6.11188ZM6.34677 11.0938C7.34588 11.8053 8.56813 12.2238 9.88812 12.2238C13.2636 12.2238 16 9.48737 16 6.11188C16 2.73638 13.2636 0 9.88812 0C6.51263 0 3.77625 2.73638 3.77625 6.11188C3.77625 7.43187 4.1947 8.65414 4.90619 9.65324L1.43051e-05 14.5594L1.4406 16L6.34677 11.0938Z" fill="white"/>
</svg>
