<svg width="32" height="32" viewBox="0 0 32 32" fill="none" xmlns="http://www.w3.org/2000/svg">
<path fill-rule="evenodd" clip-rule="evenodd" d="M32 6.95944L28 13.9189H20L18.517 11.3387L14.4848 13.3638L16 16L14.4848 18.6362L18.517 20.6614L20 18.0811H28L32 25.0406L28 32H20L16 25.0406L17.5152 22.4044L13.483 20.3792L12 22.9594H4L0 16L4 9.04057H12L13.483 11.6208L17.5152 9.59567L16 6.95944L20 0H28L32 6.95944ZM30 6.95944L27 12.179H21L18 6.95944L21 1.73986L27 1.73986L30 6.95944ZM30 25.0406L27 30.2602H21L18 25.0406L21 19.821H27L30 25.0406ZM11 21.2196L14 16L11 10.7804H5L2 16L5 21.2196L11 21.2196Z" fill="white"/>
</svg>
